<svg xmlns="http://www.w3.org/2000/svg" viewBox="0 0 367.83 247.89"><defs><style>.cls-1{fill:#23343f;}.cls-2{fill:#0f171b;}.cls-3{fill:#1b2a33;}.cls-4{fill:#121f26;}.cls-5{fill:#374d5a;}.cls-6{fill:#e18d26;}.cls-7{fill:#010101;}.cls-8{fill:#2c404c;}.cls-9{fill:#4f6573;}.cls-10{fill:#a5d06b;}.cls-11{fill:#9279b7;}.cls-12{fill:#2d414d;}.cls-13{fill:#1c2a34;}.cls-14{fill:#425663;}.cls-15{fill:#c2cccf;}.cls-16{fill:#677e8c;}</style></defs><title>display-desktopAsset 106-darktheme</title><g id="Layer_2" data-name="Layer 2"><g id="content"><polygon class="cls-1" points="0.86 0.71 0.86 145.02 0.86 206.24 366.97 206.24 366.97 0.71 0.86 0.71"/><rect class="cls-2" x="0.86" y="0.71" width="366.11" height="12.74"/><rect class="cls-3" x="0.86" y="29.75" width="366.11" height="74.09"/><rect class="cls-4" x="0.86" y="13.44" width="366.11" height="17.8"/><rect class="cls-2" x="0.86" y="196.44" width="366.11" height="9.46"/><path class="cls-5" d="M69.81,92V88.63a14.87,14.87,0,1,0-29.74,0v3.32H29.2V88.63a25.73,25.73,0,0,1,51.47,0v3.32Z"/><path class="cls-6" d="M69.81,92V88.63a14.87,14.87,0,1,0-29.74,0v3.32H29.2V88.63a25.73,25.73,0,0,1,51.47,0v3.32Z"/><polygon class="cls-7" points="55.09 63.33 54.36 63.33 54.1 90.38 55.53 90.37 55.09 63.33"/><path class="cls-8" d="M54.94,62.89A25.77,25.77,0,0,1,80.67,88.62v3.32H69.81V88.63A14.89,14.89,0,0,0,54.94,73.75"/><polygon class="cls-9" points="55.09 63.33 54.36 63.33 54.1 90.38 55.53 90.37 55.09 63.33"/><path class="cls-10" d="M152.13,91.89V88.56a14.87,14.87,0,1,0-29.74,0v3.32H111.53V88.56a25.73,25.73,0,0,1,51.47,0v3.32Z"/><polygon class="cls-7" points="137.41 63.26 136.68 63.27 136.42 90.32 137.85 90.31 137.41 63.26"/><path class="cls-8" d="M137.26,63A25.77,25.77,0,0,1,163,88.68V92H152.13V88.69a14.89,14.89,0,0,0-14.87-14.87"/><polygon class="cls-9" points="137.41 63.39 136.68 63.4 136.42 90.44 137.85 90.44 137.41 63.39"/><path class="cls-11" d="M234.45,92V88.72a14.87,14.87,0,1,0-29.74,0V92H193.85V88.72a25.73,25.73,0,0,1,51.47,0V92Z"/><polygon class="cls-7" points="219.73 63.43 219 63.43 218.74 90.48 220.17 90.47 219.73 63.43"/><path class="cls-8" d="M219.58,62.79a25.77,25.77,0,0,1,25.74,25.73v3.32H234.45V88.53a14.89,14.89,0,0,0-14.87-14.87"/><polygon class="cls-9" points="219.73 63.23 219 63.23 218.74 90.28 220.17 90.28 219.73 63.23"/><g id="Area_Chart" data-name="Area Chart"><rect class="cls-12" x="22.45" y="187.82" width="229.76" height="0.3" transform="translate(274.67 375.93) rotate(-180)"/><polygon class="cls-11" points="240.14 163.06 228.06 160.28 215.99 160.54 203.91 162.54 191.83 162.06 179.75 160.64 167.68 163.33 155.6 165.48 143.52 166.53 131.44 165.12 119.36 165.06 107.29 167.8 95.21 170.95 83.13 169.09 71.06 169.09 58.98 173.27 46.9 170.01 34.82 173.9 22.75 175.76 22.75 177.81 22.45 187.81 252.22 187.81 252.22 171.75 252.22 171.72 252.22 161.8 240.14 163.06"/><polyline class="cls-10" points="252.22 156.29 240.14 154.79 228.06 156.39 215.99 153.83 203.91 155.75 191.83 157.09 179.75 156.8 167.68 154.68 155.6 157.03 143.52 160.93 131.44 158.8 119.36 160.28 107.29 158.75 95.21 155.69 83.13 156.23 71.06 158.32 58.98 157.32 46.9 158.43 34.82 161.42 22.74 162.38 22.74 175.76 34.82 173.9 46.9 170.01 58.98 173.27 71.06 169.09 83.13 169.09 95.21 170.95 107.29 167.8 119.36 165.06 131.44 165.12 143.52 166.53 155.6 165.48 167.68 163.33 179.75 160.64 191.83 162.06 203.91 162.54 215.99 160.54 228.06 160.28 240.14 163.06 252.22 161.8"/><polyline class="cls-6" points="252.22 156.29 240.14 154.79 228.06 156.39 215.99 153.83 203.91 155.75 191.83 157.09 179.75 156.8 167.68 154.68 155.6 157.03 143.52 160.93 131.44 158.8 119.36 160.28 107.29 158.75 95.21 155.69 83.13 156.23 71.06 158.32 58.98 157.32 46.9 158.43 34.82 161.42 22.74 162.38 22.74 158 34.82 156.14 46.9 152.24 58.98 155.5 71.06 151.32 83.13 151.32 95.21 153.19 107.29 150.03 119.36 147.3 131.44 147.35 143.52 148.77 155.6 147.72 167.68 145.56 179.75 142.88 191.83 144.3 203.91 144.77 215.99 142.78 228.06 142.51 240.14 145.3 252.22 144.04"/></g><rect class="cls-11" x="287.63" y="171.4" width="1.22" height="8.14"/><rect class="cls-10" x="287.02" y="149.76" width="1.22" height="8.14"/><rect class="cls-6" x="286.41" y="130.08" width="1.22" height="8.14"/><path class="cls-13" d="M161.46,214.43v16.83l-17.36,9.14s.48,1.22,1.33,1.5c22.07,7.32,60.62,6.23,77.36,0,.55-.2,1-1,1-1l-16.23-9.77-.81-16.65"/><path class="cls-9" d="M184.24,247.89c-13.88,0-28.25-1.57-39.08-5.17a3.62,3.62,0,0,1-1.86-2L143,240l17.59-9.26V214.43h1.72v17.35l-17,9a1,1,0,0,0,.41.34c21.88,7.25,60.5,6.07,76.77,0l-15.8-9.52-.83-17.11,1.72-.08.79,16.19,16.52,9.95-.35.71a3.11,3.11,0,0,1-1.43,1.48C214.35,246,199.59,247.89,184.24,247.89Z"/><path class="cls-9" d="M367.83,207.66H0V0H367.83ZM1.72,205.93H366.11V1.72H1.72Z"/><path class="cls-8" d="M11.87,5.59H8.15a.63.63,0,1,1,0-1.26h7.52a.64.64,0,0,1,.68.56.63.63,0,0,1-.43.67,1,1,0,0,1-.29,0Z"/><path class="cls-8" d="M11.89,9.42h3.75a.63.63,0,1,1,0,1.26H8.14a.63.63,0,1,1,0-1.26Z"/><path class="cls-8" d="M11.89,6.88h3.78a.62.62,0,0,1,.63.85.59.59,0,0,1-.57.4H8.18a.68.68,0,0,1-.56-.19.6.6,0,0,1-.13-.67.61.61,0,0,1,.6-.39h3.8Z"/><rect class="cls-14" x="22.45" y="117.93" width="43.18" height="10.95"/><rect class="cls-14" x="22.45" y="40.47" width="43.18" height="10.95"/><rect class="cls-14" x="281.77" y="57.17" width="24.69" height="6.26"/><rect class="cls-14" x="292.56" y="130.73" width="27.79" height="1.41"/><rect class="cls-14" x="292.56" y="133.3" width="16.95" height="1.41"/><rect class="cls-14" x="292.56" y="135.88" width="24.57" height="1.41"/><rect class="cls-14" x="292.56" y="150.49" width="27.79" height="1.41"/><rect class="cls-14" x="292.56" y="153.07" width="16.95" height="1.41"/><rect class="cls-14" x="292.56" y="155.65" width="24.57" height="1.41"/><rect class="cls-14" x="292.56" y="172.4" width="27.79" height="1.41"/><rect class="cls-14" x="292.56" y="174.98" width="16.95" height="1.41"/><rect class="cls-14" x="292.56" y="177.56" width="24.57" height="1.41"/><path class="cls-15" d="M287.38,90.13a7.23,7.23,0,0,1-4.56-1.45.45.45,0,0,1-.08-.69l.47-.71a.41.41,0,0,1,.66-.11,6,6,0,0,0,3.56,1.16,3.4,3.4,0,0,0,3.74-3.69c0-2.08-1.11-3.58-3.82-3.58h-.47a.83.83,0,0,1-.74-.34l-.26-.32a.49.49,0,0,1,0-.74L290,74.22h-6.27c-.34,0-.47-.13-.47-.47V72.9c0-.34.13-.47.47-.47H292c.34,0,.47.13.47.47v.45a1.22,1.22,0,0,1-.29.84l-2.42,3.32a23.59,23.59,0,0,1-1.69,1.95c3.45.13,5.19,2.37,5.19,5.19C293.31,87.63,291.36,90.13,287.38,90.13Z"/><path class="cls-15" d="M302.14,90.13c-4.59,0-6.11-4.37-6.11-9s1.55-9,6.11-9,6.11,4.37,6.11,9S306.69,90.13,302.14,90.13Zm0-1.79c2.82,0,4-3,4-7.19S305,74,302.14,74s-4,3-4,7.19S299.32,88.34,302.14,88.34Z"/><path class="cls-15" d="M311.75,89.87c-.34,0-.47-.13-.47-.47V72.9c0-.34.13-.47.47-.47h1.63a.71.71,0,0,1,.71.42l5.32,9.3,5.35-9.3a.71.71,0,0,1,.71-.42H327c.34,0,.47.13.47.47v16.5c0,.34-.13.47-.47.47h-1c-.34,0-.47-.13-.47-.47V75l-5.24,9.14a.71.71,0,0,1-.71.42h-.34a.71.71,0,0,1-.71-.42L313.25,75V89.39c0,.34-.13.47-.47.47Z"/><path class="cls-16" d="M337.32,78.35H336.2V74.14l-.79.79-.8-.8,1.75-1.75.1-.08v-.24l.17.17a.57.57,0,0,1,.25,0l.17-.17v.25l.1.08,1.75,1.75-.79.8-.8-.8Z"/><rect class="cls-14" x="334.52" y="72.27" width="24.52" height="6.04"/><rect class="cls-14" x="334.52" y="85.01" width="15.89" height="5.47"/><rect class="cls-3" x="7.44" y="54.36" width="250.29" height="45.62"/><polygon class="cls-1" points="261.76 120.26 261.76 136.59 7.44 136.59 7.44 190.83 351.08 190.83 351.08 171.4 351.08 136.59 351.08 120.26 261.76 120.26"/></g></g></svg>