<svg xmlns="http://www.w3.org/2000/svg" viewBox="0 0 75.54 20.05"><defs><style>.cls-1{fill:#ebeff1;}.cls-2{fill:#67808d;}</style></defs><title>clouds-smallAsset 81lighttheme</title><g id="Layer_2" data-name="Layer 2"><g id="content"><path class="cls-1" d="M45.9,11.1a7.34,7.34,0,0,1,7-5.31,5.18,5.18,0,0,1,.59,0,6.81,6.81,0,0,1,12.12-.07,6.53,6.53,0,0,1,2.61-.46A7.33,7.33,0,0,1,74.91,11l-9.28.05"/><path class="cls-2" d="M65.64,11.54v-1l8.63-.05a6.73,6.73,0,0,0-6-4.74,6,6,0,0,0-2.41.43l-.4.16L65.2,6a6.33,6.33,0,0,0-11.28.08l-.16.27-.32,0a4.73,4.73,0,0,0-.54,0,6.83,6.83,0,0,0-6.54,5l-.92-.3a7.78,7.78,0,0,1,7.47-5.64l.33,0A7.46,7.46,0,0,1,59.8,1.62a7.56,7.56,0,0,1,6,3.55,7,7,0,0,1,2.4-.35,7.78,7.78,0,0,1,7.14,6.06l.16.6Z"/><path class="cls-1" d="M32.73,19.32.84,19.2c1.8-6.73,7.3-11.7,13.94-11.89a13.61,13.61,0,0,1,5.44,1A14.67,14.67,0,0,1,32.39.65,14.81,14.81,0,0,1,45.5,8.43c.41-.05.82-.08,1.24-.09,6.64-.19,12.41,4.46,14.59,11.07H51.25"/><path class="cls-2" d="M62.22,20h-11V18.76h9.16C58.07,12.71,52.69,8.81,46.75,9c-.4,0-.79,0-1.18.09l-.42.05-.21-.37A14.25,14.25,0,0,0,32.41,1.29,14.05,14.05,0,0,0,20.78,8.6l-.28.48L20,8.88A13,13,0,0,0,14.79,8c-5.94.17-11.11,4.4-13.1,10.6l31,.11V20L0,19.84.22,19C2.14,11.83,8,6.86,14.76,6.67a14.06,14.06,0,0,1,5.19.82A15.26,15.26,0,0,1,32.37,0,15.48,15.48,0,0,1,45.84,7.74l.88-.05c6.78-.21,12.89,4.43,15.22,11.51Z"/></g></g></svg>