<svg xmlns="http://www.w3.org/2000/svg" viewBox="0 0 65.51 46.78"><defs><style>.cls-1{fill:#1c2a34;}.cls-2{fill:#4f6573;}</style></defs><title>airplaneAsset 98-darktheme</title><g id="Layer_2" data-name="Layer 2"><g id="content"><polyline class="cls-1" points="21.31 23.39 15.07 46.28 23.39 46.28 39.26 23.39"/><polyline class="cls-1" points="21.31 15.07 15.07 0.5 23.39 0.5 35.88 15.07"/><path class="cls-1" d="M16.11,27.55H8.82A8.32,8.32,0,0,1,.5,19.23V6.74H4.66l4.16,8.32H56.68A8.32,8.32,0,0,1,65,23.39v4.16H41.08"/><path class="cls-2" d="M23.39,46.78H15.07a.5.5,0,0,1-.48-.63l6.24-22.89,1,.26L15.72,45.78h7.41L38.85,23.1l.82.57L23.8,46.56A.5.5,0,0,1,23.39,46.78Z"/><path class="cls-2" d="M35.5,15.39,23.16,1H15.82l5.94,13.87-.92.39L14.61.7a.5.5,0,0,1,.46-.7h8.32a.5.5,0,0,1,.38.17L36.25,14.74Z"/><path class="cls-2" d="M65,28.05H41.08v-1H64.51V23.39a7.83,7.83,0,0,0-7.82-7.82H8.82a.5.5,0,0,1-.45-.28l-4-8H1v12a7.83,7.83,0,0,0,7.82,7.82h7.28v1H8.82A8.83,8.83,0,0,1,0,19.23V6.74a.5.5,0,0,1,.5-.5H4.66a.5.5,0,0,1,.45.28l4,8H56.68a8.83,8.83,0,0,1,8.82,8.82v4.16A.5.5,0,0,1,65,28.05Z"/><path class="cls-2" d="M64.79,22H54.7a3.33,3.33,0,0,1-3.33-3.33V14.74h1v3.92A2.33,2.33,0,0,0,54.7,21H64.79Z"/></g></g></svg>