<svg xmlns="http://www.w3.org/2000/svg" viewBox="0 0 113.96 30.25"><defs><style>.cls-1{fill:#1c2a34;}.cls-2{fill:#4f6573;}</style></defs><title>clouds-largeAsset 100-darktheme</title><g id="Layer_2" data-name="Layer 2"><g id="content"><path class="cls-1" d="M69.25,16.75C70.83,12,75,8.6,79.81,8.74a7.81,7.81,0,0,1,.9.07A10.28,10.28,0,0,1,99,8.7a9.85,9.85,0,0,1,3.93-.7c4.8.13,8.8,3.74,10.08,8.61l-14,.08"/><path class="cls-2" d="M99,17.42V16l13-.08a10.15,10.15,0,0,0-9.12-7.15,9.06,9.06,0,0,0-3.64.65l-.6.24L98.36,9a9.55,9.55,0,0,0-17,.13l-.24.41-.48-.05a7.14,7.14,0,0,0-.82-.07c-4.39-.14-8.34,2.89-9.87,7.51l-1.39-.46C70.29,11.28,74.82,7.84,79.84,8l.49,0a11.26,11.26,0,0,1,9.9-5.59,11.41,11.41,0,0,1,9.1,5.36A10.6,10.6,0,0,1,103,7.27c5,.14,9.36,3.82,10.77,9.15l.24.91Z"/><path class="cls-1" d="M49.37,29.14,1.27,29C4,18.82,12.27,11.32,22.29,11a20.53,20.53,0,0,1,8.21,1.46C34.41,5.76,41.11,1.21,48.86,1,57.12.75,64.47,5.49,68.64,12.71c.62-.08,1.24-.12,1.87-.14,10-.29,18.73,6.72,22,16.7H77.32"/><path class="cls-2" d="M93.87,30.25H77.32V28.3H91.14c-3.54-9.13-11.66-15-20.61-14.76-.6,0-1.2.06-1.78.13l-.64.08-.32-.56C63.67,6.05,56.45,1.75,48.89,2c-7.1.21-13.66,4.33-17.54,11l-.42.73-.78-.31A19.58,19.58,0,0,0,22.32,12c-9,.26-16.77,6.63-19.76,16l46.81.17v1.95L0,29.94l.33-1.22C3.23,17.85,12,10.35,22.26,10.06a21.21,21.21,0,0,1,7.83,1.24C34.36,4.43,41.31.23,48.83,0c8.06-.22,15.79,4.23,20.32,11.67.44,0,.88-.07,1.33-.08,10.22-.32,19.45,6.69,23,17.37Z"/></g></g></svg>