<svg xmlns="http://www.w3.org/2000/svg" viewBox="0 0 229.76 45.3"><defs><style>.cls-1{fill:#e18d26;}</style></defs><title>graph-orange-Asset 86lighttheme</title><g id="Layer_2" data-name="Layer 2"><g id="content"><path class="cls-1" d="M229.76,13.77V1.53L217.69,2.79,205.61,0,193.53.26l-12.08,2-12.08-.47L157.3.37,145.22,3.05,133.14,5.21,121.07,6.26,109,4.84,96.91,4.79,84.83,7.52,72.76,10.68,60.68,8.81H48.6L36.52,13,24.45,9.73,12.37,13.62.29,15.49v4.38l12.08-1,12.08-3,8.05-.74-8.05.74-12.08,3-12.08,1V35.3L0,45.3H229.76v-26l-12.08,1.26-3.45-.8,3.45.8,12.08-1.26V13.77Zm-108.7,4.65h0L113,17ZM36.52,14.81l12.08,1h0l-12.08-1Zm0,15.95L48.6,26.57h0Zm36.23-2.31L60.68,26.57l12.08,1.87,8.54-2.23ZM96.91,17.76,109,16.29h0L96.91,17.76Zm48.31,3.05L133.14,23,121.07,24,109,22.6l-6.06,0,6.07,0L121.07,24,133.14,23l12.08-2.16,4.94-1.1Zm12.08-6.53-12.08-2.11h0l12.08,2.11,12.08.29h0Zm48.31-.41h0l12.08-1.6h0Z"/></g></g></svg>