<svg xmlns="http://www.w3.org/2000/svg" viewBox="0 0 229.76 33.99"><defs><style>.cls-1{fill:#a5d06b;}</style></defs><title>graph-greenAsset 85lighttheme</title><g id="Layer_2" data-name="Layer 2"><g id="content"><path class="cls-1" d="M217.69,1l-12.08,1.6L193.53,0,181.45,1.92,169.38,3.26,157.3,3,145.22.86,133.14,3.2l-12.08,3.9L109,5,96.91,6.45,84.83,4.92,72.76,1.86l-12.08.54L48.6,4.49l-12.08-1L24.45,4.6l-12.08,3L.29,8.56V21.94l12.08-1.86,12.08-3.89h0L12.37,20.07.29,21.94V24L0,34H229.76V8L217.69,9.24l-3.45-.8,3.45.8L229.76,8V2.46ZM36.52,19.44,48.6,15.26h0Zm24.16-4.18,12.08,1.87,8.54-2.23-8.54,2.23Zm72.47-3.6-12.08,1.05L109,11.29l-6.06,0,6.07,0,12.08,1.42,12.08-1.05L145.22,9.5l4.94-1.1-4.94,1.1Zm48.31-2.95,1.34-.22-1.34.22Z"/></g></g></svg>