<svg xmlns="http://www.w3.org/2000/svg" viewBox="0 0 278.55 76.88"><defs><style>.cls-1{fill:#2d8ec0;}.cls-2,.cls-3,.cls-7,.cls-8{fill:#00b5d6;}.cls-3,.cls-7,.cls-8{font-size:30.91px;font-family:GEInspira, GE Inspira;}.cls-3{letter-spacing:0.27em;}.cls-4{letter-spacing:0.29em;}.cls-5{letter-spacing:0.29em;}.cls-6{letter-spacing:0.28em;}.cls-7{letter-spacing:0.09em;}.cls-8{letter-spacing:0.27em;}.cls-9{letter-spacing:0.28em;}.cls-10{letter-spacing:0.27em;}</style></defs><title>text-logo-Asset 75lighttheme</title><g id="Layer_2" data-name="Layer 2"><g id="content"><path class="cls-1" d="M213.47,0c-3.79,5-7.63,9.92-11.33,15a2.81,2.81,0,0,1-2.72,1.35c-2.56-.1-5.13,0-7.7,0a1.43,1.43,0,0,1-1.33-.51Q184.59,8.11,178.76.47c.22-.41.57-.22.84-.23a27.28,27.28,0,0,0,4,0c2.74-.46,4.41.69,5.85,3,1.82,2.84,4,5.44,6,8.18.52.73.78.6,1.22,0,2.71-3.78,5.67-7.39,8.21-11.31Z"/><path class="cls-1" d="M82.11,17.71c0-5.37,0-10.74,0-16.1,0-.92.25-1.16,1.16-1.16q13.54.05,27.07,0c.88,0,1.15.22,1.1,1.1a36.07,36.07,0,0,0,0,4c0,.87-.23,1.12-1.11,1.12-6.5,0-13,0-19.49,0-1.16,0-1.44.33-1.38,1.43.09,1.86.06,3.73,0,5.6,0,.81.22,1.06,1,1.05,5.33,0,10.66,0,16,0,1.07,0,1.32.31,1.25,1.31a32.14,32.14,0,0,0,0,3.85c0,.82-.2,1-1,1-5.33,0-10.66,0-16,0-1,0-1.32.28-1.27,1.29.08,1.86.08,3.74,0,5.6,0,1,.23,1.25,1.22,1.24,6.46,0,12.91,0,19.37-.05,1.14,0,1.48.32,1.39,1.43a37.48,37.48,0,0,0,0,3.85c0,.6-.09.91-.81.91q-13.83,0-27.66,0c-1,0-.84-.52-.84-1.11Q82.11,25.82,82.11,17.71Z"/><path class="cls-2" d="M213.28,34.55h-8c-.48,0-.64-.37-.87-.68-2.59-3.4-5.19-6.78-7.75-10.2-.53-.71-.75-.68-1.27,0-2.45,3.36-5,6.66-7.42,10a2.23,2.23,0,0,1-2.1,1.08c-2.35-.08-4.71,0-7.32,0l4.57-6c2.33-3.06,4.67-6.12,7-9.2a2,2,0,0,1,1.84-.92q4.49.07,9,0a.75.75,0,0,1,.73.37l11.58,15.21C213.26,34.27,213.25,34.36,213.28,34.55Z"/><path class="cls-1" d="M170.49,17.63c0,5.33,0,10.65,0,16,0,1-.28,1.24-1.23,1.2-1.67-.08-3.34-.07-5,0-.91,0-1.18-.21-1.17-1.15,0-5.33,0-10.65,0-16s0-10.81,0-16.21c0-1.07.31-1.31,1.3-1.26,1.67.08,3.34.07,5,0,.87,0,1.11.21,1.11,1.09C170.47,6.75,170.49,12.19,170.49,17.63Z"/><path class="cls-1" d="M62.85,23.51c.84-.35,1.55-.58,2.2-.92,4.4-2.28,6.78-5.87,6.71-10.86C71.69,7.1,69.29,3.92,65.18,2A13.49,13.49,0,0,0,60.37.66c-6-.45-12-.09-18-.19-.67,0-.93.35-.93,1q0,16.34,0,32.68c0,.67.21.87.87.85,1.87,0,3.74-.05,5.6,0,.79,0,1-.25,1-1,0-3,0-5.91,0-8.87,0-.75.19-1,1-1a36.31,36.31,0,0,0,4,0A2.27,2.27,0,0,1,56,25.26c2.18,3,4.45,6,6.7,9,.24.32.39.79.93.79h8.23Zm-4.42-5.58c-3,.14-5.91,0-8.87.06-.6,0-.7-.26-.69-.77,0-1.67,0-3.35,0-5s0-3.19,0-4.78c0-.59.15-.83.78-.82,3,.07,5.91-.1,8.86.12,3.71.27,6,2.23,6,5.24A6,6,0,0,1,58.43,17.93Z"/><path class="cls-1" d="M142.55,1.44c-6.45-2.1-13.12-1-19.69-1.16-.87,0-1.2.49-1.18,1.48.07,5.25,0,10.5,0,15.75q0,8.11,0,16.22c0,.5-.2,1.1.73,1.08,5.24-.14,10.5.3,15.74-.25a18.34,18.34,0,0,0,10.72-4.64C157.38,22.19,155.78,5.75,142.55,1.44Zm-4.94,26.82c-2.63.41-5.28.14-7.91.25-.83,0-.71-.5-.71-1q0-5,0-10c0-3.3,0-6.61,0-9.91,0-.88.17-1.24,1.14-1.21a50.3,50.3,0,0,1,7.9.4c5.52,1.07,8.88,5.34,8.74,11.11A10.37,10.37,0,0,1,137.61,28.26Z"/><path class="cls-1" d="M28.53,3.85A15,15,0,0,0,18.84.72C13.63.66,8.41.72,3.2.68c-.82,0-1,.22-1,1,0,5.41,0,10.82,0,16.23s0,10.89,0,16.34c0,.74.17,1,1,1q2.74-.09,5.49,0c.77,0,1-.21,1-1,0-3,0-5.91,0-8.87,0-.76.21-1,1-1,2.45,0,4.9,0,7.35,0a17.08,17.08,0,0,0,8.94-2.22C33.58,18.11,34.46,8.7,28.53,3.85ZM19.06,18.17c-2.91.14-5.83,0-8.75.06-.69,0-.74-.34-.73-.87,0-1.59,0-3.19,0-4.78s0-3.19,0-4.78c0-.68.15-1,.9-1,2.88.08,5.76-.09,8.63.11,3.84.28,6,2.2,6,5.28C25.16,15.49,22.68,18,19.06,18.17Z"/><text class="cls-3" transform="translate(0 58.72) scale(0.7)">D<tspan class="cls-4" x="27.98" y="0">E</tspan><tspan class="cls-5" x="52.58" y="0">S</tspan><tspan x="77.22" y="0">I</tspan><tspan class="cls-6" x="92.92" y="0">G</tspan><tspan x="121.43" y="0">N</tspan></text><text class="cls-7" transform="translate(105.1 58.72)"> </text><text class="cls-8" transform="translate(115.09 58.72) scale(0.7)">S<tspan class="cls-9" x="24.14" y="0">Y</tspan><tspan class="cls-10" x="48.37" y="0">STEM</tspan></text></g></g></svg>