<svg xmlns="http://www.w3.org/2000/svg" viewBox="0 0 52.62 50.25"><defs><style>.cls-1{fill:#131f27;}.cls-2{fill:#4f6573;}.cls-3{fill:#1c2a34;}</style></defs><title>windmill-top-smallAsset 102-darktheme</title><g id="Layer_2" data-name="Layer 2"><g id="content"><path class="cls-1" d="M28.3,23.65l-3-4.25a4.15,4.15,0,0,1-.33-4.27L32.13.75h4.15l-4.15,23.9"/><path class="cls-2" d="M32.87,24.78l-1.49-.26,4-23H32.6l-7,14A3.39,3.39,0,0,0,25.88,19l3,4.25-1.23.87-3-4.25a4.9,4.9,0,0,1-.39-5L31.66,0h5.52Z"/><path class="cls-3" d="M33.82,30.73l5.2-.49a4.15,4.15,0,0,1,3.86,1.85L51.73,45.5l-2.08,3.6L31,33.55"/><path class="cls-2" d="M49.86,50.25,30.55,34.13l1-1.16,17.93,15,1.4-2.42-8.6-13A3.39,3.39,0,0,0,39.09,31l-5.2.49L33.75,30l5.2-.49a4.9,4.9,0,0,1,4.56,2.18l9.11,13.81Z"/><path class="cls-3" d="M24.93,32l-2.17,4.75a4.15,4.15,0,0,1-3.53,2.42l-16,1L1.1,36.51l22.77-8.35"/><path class="cls-2" d="M2.76,40.88,0,36.11l23.62-8.66.52,1.42-21.93,8L3.6,39.32l15.58-.93a3.39,3.39,0,0,0,2.89-2l2.17-4.75,1.37.63L23.44,37a4.9,4.9,0,0,1-4.17,2.86Z"/><circle class="cls-3" cx="29.01" cy="28.79" r="5.19"/><path class="cls-2" d="M29,34.73A5.95,5.95,0,1,1,35,28.79,6,6,0,0,1,29,34.73Zm0-10.38a4.44,4.44,0,1,0,4.44,4.44A4.44,4.44,0,0,0,29,24.35Z"/></g></g></svg>