<svg xmlns="http://www.w3.org/2000/svg" viewBox="0 0 59.52 59.52"><defs><style>.cls-1{fill:#ebeff0;}.cls-2{fill:#677e8c;}.cls-3{fill:none;}.cls-4{fill:#4cbbce;}</style></defs><title>windmill-top-small-Asset 64lighttheme</title><g id="Layer_2" data-name="Layer 2"><g id="content"><path class="cls-1" d="M29,24.62l-3-4.25a4.15,4.15,0,0,1-.33-4.27L32.87,1.72H37l-4.15,23.9"/><path class="cls-2" d="M33.62,25.75l-1.49-.26,4-23H33.34l-7,14a3.39,3.39,0,0,0,.27,3.49l3,4.25-1.23.87-3-4.25a4.9,4.9,0,0,1-.39-5L32.41,1h5.52Z"/><path class="cls-1" d="M34.56,31.7l5.2-.49a4.15,4.15,0,0,1,3.86,1.85l8.86,13.42-2.08,3.6L31.78,34.52"/><path class="cls-2" d="M50.61,51.22,31.3,35.1l1-1.16,17.93,15,1.4-2.42-8.6-13A3.39,3.39,0,0,0,39.83,32l-5.2.49L34.49,31l5.2-.49a4.9,4.9,0,0,1,4.56,2.18l9.11,13.81Z"/><path class="cls-1" d="M25.67,32.95,23.5,37.69A4.15,4.15,0,0,1,20,40.11l-16,1-2.08-3.6,22.77-8.35"/><path class="cls-2" d="M3.5,41.86.74,37.08l23.62-8.66.52,1.42-21.93,8,1.39,2.42,15.58-.93a3.39,3.39,0,0,0,2.89-2L25,32.63l1.37.63L24.19,38A4.9,4.9,0,0,1,20,40.87Z"/><circle class="cls-1" cx="29.76" cy="29.76" r="5.19"/><path class="cls-2" d="M29.76,35.7a5.95,5.95,0,1,1,5.95-5.95A6,6,0,0,1,29.76,35.7Zm0-10.38a4.44,4.44,0,1,0,4.44,4.44A4.44,4.44,0,0,0,29.76,25.32Z"/><rect class="cls-3" width="59.52" height="59.52"/><circle class="cls-4" cx="29.76" cy="29.76" r="0.53"/></g></g></svg>