<svg xmlns="http://www.w3.org/2000/svg" viewBox="0 0 101.38 101.38"><defs><style>.cls-1{fill:#ebeff0;}.cls-2{fill:#677e8c;}.cls-3{fill:none;}</style></defs><title>windmill-top-large-Asset 61lighttheme</title><g id="Layer_2" data-name="Layer 2"><g id="content"><path class="cls-1" d="M49.45,41.87l-5.16-7.26a7.09,7.09,0,0,1-.56-7.28L56,2.79h7.09L56,43.57"/><path class="cls-2" d="M56.73,43.7l-1.49-.26,6.93-39.9H56.45L44.39,27.67a6.32,6.32,0,0,0,.5,6.5l5.16,7.26-1.23.87L43.67,35A7.83,7.83,0,0,1,43,27L55.52,2H64Z"/><path class="cls-1" d="M58.87,53.95l8.87-.84a7.09,7.09,0,0,1,6.59,3.15l15.12,22.9L85.9,85.29,54.13,58.76"/><path class="cls-2" d="M86.1,86.44,53.64,59.34l1-1.16,31.08,26,2.86-5L73.7,56.67a6.32,6.32,0,0,0-5.88-2.82l-8.87.84-.14-1.5,8.87-.84A7.83,7.83,0,0,1,75,55.84L90.33,79.12Z"/><path class="cls-1" d="M43.7,56.07,40,64.17a7.09,7.09,0,0,1-6,4.13L6.58,69.94,3,63.8,41.9,49.55"/><path class="cls-2" d="M6.16,70.72,1.94,63.4,41.64,48.84l.52,1.42L4.14,64.2l2.86,5,26.92-1.61a6.32,6.32,0,0,0,5.38-3.69l3.7-8.1,1.37.63-3.7,8.1A7.83,7.83,0,0,1,34,69Z"/><circle class="cls-1" cx="50.67" cy="50.63" r="8.86"/><path class="cls-2" d="M50.67,60.24a9.61,9.61,0,1,1,9.61-9.61A9.62,9.62,0,0,1,50.67,60.24Zm0-17.72a8.1,8.1,0,1,0,8.1,8.1A8.11,8.11,0,0,0,50.67,42.52Z"/><rect class="cls-3" width="101.38" height="101.38"/></g></g></svg>